<?xml version="1.0" encoding="utf-8"?>
<!-- Generator: Adobe Illustrator 27.2.0, SVG Export Plug-In . SVG Version: 6.00 Build 0)  -->
<svg version="1.1" id="레이어_1" xmlns="http://www.w3.org/2000/svg" xmlns:xlink="http://www.w3.org/1999/xlink" x="0px"
	 y="0px" viewBox="0 0 141.7 141.7" style="enable-background:new 0 0 141.7 141.7;" xml:space="preserve">
<style type="text/css">
	.st0{fill:#ffffff;}
</style>
<path id="패스_3574" class="st0" d="M74.4,56.2c2.2-12,0.4-30-19.4-49.8c-1-1-1.9-2.1-2.9-3.2c0,0,45.5,31.1,33.4,71.3
	c12,2.2,30,0.4,49.8-19.4c1-1,2.1-1.9,3.2-2.9c0,0-31.1,45.5-71.3,33.4c-2.2,12-0.4,30,19.4,49.8c1,1,1.9,2.1,2.9,3.2
	c0,0-45.5-31.1-33.4-71.3c-12-2.2-30-0.4-49.8,19.4c-1,1-2.1,1.9-3.2,2.9C3.2,89.6,34.2,44.1,74.4,56.2"/>
</svg>
