<?xml version="1.0" encoding="utf-8"?>
<!-- Generator: Adobe Illustrator 27.2.0, SVG Export Plug-In . SVG Version: 6.00 Build 0)  -->
<svg version="1.1" id="Layer_1" xmlns="http://www.w3.org/2000/svg" xmlns:xlink="http://www.w3.org/1999/xlink" x="0px" y="0px"
	 viewBox="0 0 141.7 143.2" style="enable-background:new 0 0 141.7 143.2;" xml:space="preserve">
<style type="text/css">
	.st0{fill:none;}
	.st1{fill:#ffffff;}
</style>
<rect x="11.4" y="11.5" class="st0" width="119" height="120.2"/>
<g id="그룹_10051" transform="translate(-466.998 -5534.237)">
	<path id="패스_3539" class="st1" d="M534.6,5557.6c11.4,0,20.7,9.3,20.7,20.7c0,10.9-8.4,19.9-19.3,20.6c0.6,0,1.2,0.1,1.8,0.1
		c13.2,0,24-10.7,24-24c0-13.2-10.7-24-24-24c-13.2,0-24,10.7-24,24l0,0c0,0.6,0,1.2,0.1,1.8C514.7,5566,523.7,5557.6,534.6,5557.6"
		/>
	<path id="패스_3540" class="st1" d="M568.1,5581.9c-0.6,0-1.2,0-1.8,0.1c11.4,0.8,20,10.7,19.2,22.1s-10.7,20-22.1,19.2
		c-10.3-0.7-18.5-8.9-19.2-19.2c0,0.6-0.1,1.2-0.1,1.8c0,13.2,10.7,24,24,24s24-10.7,24-24S581.2,5581.9,568.1,5581.9"/>
	<path id="패스_3541" class="st1" d="M510.9,5588.3c10.9,0,19.9,8.4,20.6,19.3c0-0.6,0.1-1.2,0.1-1.8c0-13.2-10.7-24-24-24
		s-24,10.7-24,24c0,13.2,10.7,24,24,24c0.6,0,1.2,0,1.8-0.1c-11.4-0.8-20-10.6-19.2-22C491,5596.7,500,5588.3,510.9,5588.3"/>
	<path id="패스_3542" class="st1" d="M541.1,5654.1c-11.4,0-20.7-9.3-20.7-20.7c0-10.9,8.4-19.9,19.3-20.6c-0.6,0-1.2-0.1-1.8-0.1
		c-13.2,0-24,10.7-24,24c0,13.2,10.7,24,24,24c13.2,0,24-10.7,24-24c0-0.6,0-1.2-0.1-1.8C561,5645.6,551.9,5654.1,541.1,5654.1"/>
</g>
</svg>
