<?xml version="1.0" encoding="utf-8"?>
<!-- Generator: Adobe Illustrator 27.2.0, SVG Export Plug-In . SVG Version: 6.00 Build 0)  -->
<svg version="1.1" id="레이어_1" xmlns="http://www.w3.org/2000/svg" xmlns:xlink="http://www.w3.org/1999/xlink" x="0px"
	 y="0px" viewBox="0 0 141.7 141.7" style="enable-background:new 0 0 141.7 141.7;" xml:space="preserve">
<style type="text/css">
	.st0{fill:#ffffff;}
</style>
<path id="패스_3544" class="st0" d="M92,87.2l39,18.9L94.7,81.4c-0.5-0.4-0.7-1.1-0.3-1.6c0.3-0.4,0.7-0.6,1.2-0.5l20.4,3.9
	l-18.9-6.6c-0.6-0.2-0.9-0.9-0.7-1.5c0.1-0.4,0.5-0.7,1-0.8l43.2-3.2l-43.8-3.2c-0.6,0-1.1-0.6-1.1-1.2c0-0.5,0.3-0.8,0.8-1
	l19.6-6.8l-19.7,3.8c-0.6,0.1-1.2-0.3-1.3-0.9c-0.1-0.4,0.1-0.9,0.5-1.2l35.9-24.4L91.9,55.5c-0.6,0.3-1.3,0-1.5-0.5
	c-0.2-0.4-0.1-0.9,0.2-1.2l13.6-15.7L89,51.1c-0.5,0.4-1.2,0.4-1.6-0.1c-0.3-0.3-0.4-0.8-0.2-1.3l18.9-39L81.4,47
	c-0.4,0.5-1.1,0.7-1.6,0.3c-0.4-0.3-0.6-0.7-0.5-1.2l3.9-20.4l-6.6,18.9c-0.2,0.6-0.9,0.9-1.5,0.7c-0.4-0.1-0.7-0.5-0.8-1L71.3,1.1
	l-3.2,43.8c0,0.6-0.6,1.1-1.2,1.1c-0.5,0-0.8-0.3-1-0.8L59,25.6l3.8,19.7c0.1,0.6-0.3,1.2-0.9,1.3c-0.4,0.1-0.9-0.1-1.2-0.5
	L36.3,10.3l19.1,39.5c0.3,0.6,0,1.3-0.5,1.5c-0.4,0.2-0.9,0.1-1.3-0.2L37.9,37.6l13.1,15.2c0.4,0.5,0.4,1.2-0.1,1.6
	c-0.3,0.3-0.8,0.4-1.2,0.2l-39-18.9L47,60.3c0.5,0.4,0.7,1.1,0.3,1.6c-0.3,0.4-0.7,0.6-1.2,0.5l-20.4-3.9l18.9,6.6
	c0.6,0.2,0.9,0.9,0.7,1.5c-0.1,0.4-0.5,0.7-1,0.8L1.1,70.5l43.8,3.2c0.6,0,1.1,0.6,1.1,1.2c0,0.5-0.3,0.8-0.8,1l-19.6,6.8L45.3,79
	c0.6-0.1,1.2,0.3,1.3,0.9c0.1,0.4-0.1,0.9-0.5,1.2l-35.9,24.4l39.5-19.1c0.6-0.3,1.3,0,1.5,0.5c0.2,0.4,0.1,0.9-0.2,1.2l-13.6,15.7
	l15.2-13.1c0.5-0.4,1.2-0.4,1.6,0.1c0.3,0.3,0.4,0.8,0.2,1.3l-18.9,39l24.7-36.3c0.4-0.5,1.1-0.7,1.6-0.3c0.4,0.3,0.6,0.7,0.5,1.2
	L58.5,116l6.6-18.9c0.2-0.6,0.9-0.9,1.5-0.7c0.4,0.1,0.7,0.5,0.8,1l3.2,43.2l3.2-43.8c0-0.6,0.6-1.1,1.2-1.1c0.5,0,0.8,0.3,1,0.8
	l6.8,19.6L79,96.5c-0.1-0.6,0.3-1.2,0.9-1.3c0.4-0.1,0.9,0.1,1.2,0.5l24.4,35.9L86.3,91.9c-0.3-0.6,0-1.3,0.5-1.5
	c0.4-0.2,0.9-0.1,1.3,0.2l15.7,13.6L90.7,89c-0.4-0.5-0.4-1.2,0.1-1.6C91.1,87.1,91.6,87,92,87.2 M70.9,93.4
	c-12.5,0-22.6-10.1-22.6-22.6c0-12.5,10.1-22.6,22.6-22.6c12.5,0,22.6,10.1,22.6,22.6c0,0,0,0,0,0C93.4,83.3,83.3,93.4,70.9,93.4"/>
</svg>
