<?xml version="1.0" encoding="utf-8"?>
<!-- Generator: Adobe Illustrator 27.2.0, SVG Export Plug-In . SVG Version: 6.00 Build 0)  -->
<svg version="1.1" id="레이어_1" xmlns="http://www.w3.org/2000/svg" xmlns:xlink="http://www.w3.org/1999/xlink" x="0px"
	 y="0px" viewBox="0 0 141.7 149.4" style="enable-background:new 0 0 141.7 149.4;" xml:space="preserve">
<style type="text/css">
	.st0{fill:#ffffff;}
</style>
<path id="패스_3543" class="st0" d="M140.9,74.7c-36.6-1.9-40.2-3.4-38.5-23.8C98,67,94.1,71.3,74.9,73.4
	c-1.2,0.1-2.2-0.7-2.3-1.9c0-0.2,0-0.3,0-0.5c2.5-20.3,7.9-24.3,27.3-28.8c-24.8,1.6-26.7-2.3-29-41.3c-2.3,39-4.1,42.8-29,41.3
	c19.4,4.5,24.8,8.5,27.3,28.8c0.1,1.2-0.7,2.2-1.9,2.4c-0.2,0-0.3,0-0.5,0C47.6,71.3,43.7,67,39.2,51C41,71.3,37.5,72.8,0.9,74.7
	c36.6,1.9,40.1,3.4,38.3,23.8c4.5-16,8.4-20.4,27.7-22.4c1.2-0.1,2.2,0.7,2.3,1.9c0,0.2,0,0.3,0,0.5c-2.5,20.3-7.9,24.3-27.3,28.6
	c24.8-1.4,26.7,2.5,29,41.5c2.3-39,4.1-42.9,29-41.5c-19.4-4.3-24.8-8.3-27.3-28.6c-0.1-1.2,0.7-2.2,1.9-2.4c0.2,0,0.3,0,0.5,0
	c19.2,2,23.1,6.4,27.5,22.4C100.7,78.1,104.3,76.6,140.9,74.7"/>
</svg>
